<svg width="27" height="26" viewBox="0 0 27 26" fill="none" xmlns="http://www.w3.org/2000/svg">
<path d="M7.55421 21.9802C8.63237 21.9802 9.51568 22.8823 9.51568 23.9967C9.51568 25.0979 8.63237 26 7.55421 26C6.46306 26 5.57975 25.0979 5.57975 23.9967C5.57975 22.8823 6.46306 21.9802 7.55421 21.9802ZM22.1678 21.9802C23.246 21.9802 24.1293 22.8823 24.1293 23.9967C24.1293 25.0979 23.246 26 22.1678 26C21.0767 26 20.1934 25.0979 20.1934 23.9967C20.1934 22.8823 21.0767 21.9802 22.1678 21.9802ZM1.64407 0.0113598L4.74216 0.487631C5.18381 0.568558 5.50856 0.938696 5.54753 1.38976L5.79434 4.36148C5.83331 4.78734 6.17104 5.10574 6.58672 5.10574H24.1295C24.9219 5.10574 25.4415 5.38434 25.9611 5.9946C26.4807 6.60487 26.5716 7.48047 26.4547 8.27514L25.2207 16.978C24.9869 18.651 23.584 19.8834 21.9343 19.8834H7.7623C6.03465 19.8834 4.60576 18.5316 4.46288 16.7804L3.26781 2.31842L1.30634 1.97349C0.786741 1.88063 0.423025 1.36323 0.513954 0.832563C0.604883 0.289959 1.11149 -0.0695666 1.64407 0.0113598ZM19.8559 10.0131H16.2577C15.7121 10.0131 15.2834 10.4509 15.2834 11.0081C15.2834 11.552 15.7121 12.0031 16.2577 12.0031H19.8559C20.4015 12.0031 20.8301 11.552 20.8301 11.0081C20.8301 10.4509 20.4015 10.0131 19.8559 10.0131Z" fill="#262626"/>
</svg>
