<svg width="25" height="24" viewBox="0 0 25 24" fill="none" xmlns="http://www.w3.org/2000/svg">
<path fill-rule="evenodd" clip-rule="evenodd" d="M9.3335 4.5C9.66836 4.5 9.96265 4.72198 10.0546 5.04396L10.8678 7.89015C11.2238 9.13593 12.1976 10.1097 13.4433 10.4657L16.2895 11.2789C16.6115 11.3709 16.8335 11.6651 16.8335 12C16.8335 12.3349 16.6115 12.6291 16.2895 12.7211L13.4433 13.5343C12.1976 13.8903 11.2238 14.8641 10.8678 16.1099L10.0546 18.956C9.96265 19.278 9.66836 19.5 9.3335 19.5C8.99864 19.5 8.70435 19.278 8.61235 18.956L7.79916 16.1099C7.44322 14.8641 6.46942 13.8903 5.22364 13.5343L2.37746 12.7211C2.05548 12.6291 1.8335 12.3349 1.8335 12C1.8335 11.6651 2.05548 11.3709 2.37746 11.2789L5.22365 10.4657C6.46942 10.1097 7.44322 9.13593 7.79916 7.89015L8.61235 5.04396C8.70435 4.72198 8.99864 4.5 9.3335 4.5Z" fill="#262626"/>
<path fill-rule="evenodd" clip-rule="evenodd" d="M18.3335 1.5C18.6776 1.5 18.9776 1.73422 19.0611 2.0681L19.32 3.10356C19.5551 4.04406 20.2894 4.7784 21.2299 5.01353L22.2654 5.27239C22.5993 5.35586 22.8335 5.65585 22.8335 6C22.8335 6.34415 22.5993 6.64414 22.2654 6.72761L21.2299 6.98647C20.2894 7.2216 19.5551 7.95594 19.32 8.89644L19.0611 9.9319C18.9776 10.2658 18.6776 10.5 18.3335 10.5C17.9893 10.5 17.6894 10.2658 17.6059 9.9319L17.347 8.89644C17.1119 7.95594 16.3776 7.2216 15.4371 6.98647L14.4016 6.72761C14.0677 6.64414 13.8335 6.34415 13.8335 6C13.8335 5.65585 14.0677 5.35586 14.4016 5.27239L15.4371 5.01353C16.3776 4.7784 17.1119 4.04406 17.347 3.10356L17.6059 2.0681C17.6894 1.73422 17.9893 1.5 18.3335 1.5Z" fill="#262626"/>
<path fill-rule="evenodd" clip-rule="evenodd" d="M16.8335 15C17.1563 15 17.4429 15.2066 17.545 15.5128L17.9393 16.6956C18.0886 17.1435 18.44 17.4949 18.8879 17.6442L20.0707 18.0385C20.3769 18.1406 20.5835 18.4272 20.5835 18.75C20.5835 19.0728 20.3769 19.3594 20.0707 19.4615L18.8879 19.8558C18.44 20.0051 18.0886 20.3565 17.9393 20.8044L17.545 21.9872C17.4429 22.2934 17.1563 22.5 16.8335 22.5C16.5107 22.5 16.2241 22.2934 16.122 21.9872L15.7277 20.8044C15.5784 20.3565 15.227 20.0051 14.7791 19.8558L13.5963 19.4615C13.2901 19.3594 13.0835 19.0728 13.0835 18.75C13.0835 18.4272 13.2901 18.1406 13.5963 18.0385L14.7791 17.6442C15.227 17.4949 15.5784 17.1435 15.7277 16.6956L16.122 15.5128C16.2241 15.2066 16.5107 15 16.8335 15Z" fill="#262626"/>
</svg>
